<svg xmlns="http://www.w3.org/2000/svg" viewBox="0 0 256 256">
  <defs>
    <linearGradient id="grad" x1="0%" y1="0%" x2="100%" y2="100%">
      <stop offset="0%" style="stop-color:#8b5cf6;stop-opacity:1" />
      <stop offset="100%" style="stop-color:#3b82f6;stop-opacity:1" />
    </linearGradient>
  </defs>
  <rect width="256" height="256" fill="#1a1a2e"/>
  <path d="M128 64 L160 80 L160 112 L128 128 L96 112 L96 80 Z" fill="url(#grad)" opacity="0.3"/>
  <path d="M128 128 L160 144 L160 176 L128 192 L96 176 L96 144 Z" fill="url(#grad)"/>
  <circle cx="128" cy="96" r="8" fill="url(#grad)"/>
  <circle cx="128" cy="160" r="8" fill="url(#grad)"/>
  <circle cx="96" cy="128" r="6" fill="url(#grad)"/>
  <circle cx="160" cy="128" r="6" fill="url(#grad)"/>
  <line x1="64" y1="96" x2="88" y2="96" stroke="url(#grad)" stroke-width="4"/>
  <line x1="168" y1="96" x2="192" y2="96" stroke="url(#grad)" stroke-width="4"/>
  <line x1="64" y1="160" x2="88" y2="160" stroke="url(#grad)" stroke-width="4"/>
  <line x1="168" y1="160" x2="192" y2="160" stroke="url(#grad)" stroke-width="4"/>
  <line x1="128" y1="48" x2="128" y2="72" stroke="url(#grad)" stroke-width="4"/>
  <line x1="128" y1="184" x2="128" y2="208" stroke="url(#grad)" stroke-width="4"/>
</svg>